<?xml version="1.0" standalone="no"?>
<!DOCTYPE svg PUBLIC "-//W3C//DTD SVG 20010904//EN"
 "http://www.w3.org/TR/2001/REC-SVG-20010904/DTD/svg10.dtd">
<svg version="1.0" xmlns="http://www.w3.org/2000/svg"
 width="1024.000000pt" height="1024.000000pt" viewBox="0 0 1024.000000 1024.000000"
 preserveAspectRatio="xMidYMid meet">
<metadata>
Created by potrace 1.14, written by Peter Selinger 2001-2017
</metadata>
<g transform="translate(0.000000,1024.000000) scale(0.100000,-0.100000)"
fill="#000000" stroke="none">
<path d="M6778 8604 c-3 -3 -34 -7 -69 -10 -62 -4 -65 -5 -112 -56 -53 -59
-77 -100 -77 -133 0 -13 -6 -28 -14 -34 -14 -12 -22 -43 -31 -116 -3 -22 -9
-56 -15 -75 -5 -19 -16 -102 -25 -185 -9 -82 -25 -206 -35 -275 -11 -69 -20
-134 -19 -145 0 -11 -4 -40 -9 -65 -20 -91 -53 -419 -55 -542 -1 -47 -5 -89
-8 -93 -4 -3 -3 -22 1 -42 5 -20 5 -46 0 -59 -5 -12 -11 -67 -14 -121 -3 -54
-13 -161 -21 -238 -9 -77 -18 -176 -20 -220 -1 -44 -10 -154 -19 -244 -13
-121 -14 -176 -7 -211 6 -26 7 -60 2 -76 -10 -38 13 -119 48 -164 15 -19 32
-47 39 -63 6 -15 24 -33 39 -39 16 -7 35 -17 43 -24 8 -6 30 -14 48 -18 17 -3
46 -9 63 -12 23 -5 38 -1 60 15 24 18 38 21 73 16 57 -9 83 0 101 35 8 15 29
43 47 61 38 37 56 91 68 204 5 44 18 145 29 225 11 80 20 166 21 192 0 26 4
49 9 52 5 3 40 -26 77 -64 37 -39 91 -85 119 -102 27 -17 55 -37 60 -43 16
-18 119 -85 131 -85 6 0 21 -11 33 -24 13 -14 36 -30 52 -36 16 -7 29 -16 29
-20 0 -5 15 -18 33 -29 17 -11 44 -33 59 -48 14 -15 58 -61 97 -102 39 -41 71
-78 71 -82 0 -12 92 -60 121 -63 14 -2 31 -6 38 -10 6 -4 32 -4 58 0 36 5 54
15 80 43 18 20 33 44 33 53 0 10 13 21 34 28 57 18 70 41 77 130 5 50 -40 150
-92 205 -98 103 -175 175 -190 175 -10 0 -27 12 -38 28 -35 46 -75 82 -98 88
-12 3 -24 12 -27 20 -3 7 -31 31 -63 51 -32 21 -65 42 -73 48 -9 5 -31 19 -49
30 -18 11 -59 39 -90 63 -45 35 -62 43 -88 40 -23 -3 -33 0 -33 10 0 7 -13 26
-28 42 l-29 28 39 34 c21 18 47 40 56 48 9 9 36 28 60 43 24 16 46 35 49 43 3
8 18 21 34 30 43 22 137 94 143 109 3 8 22 23 43 34 42 22 143 113 143 129 0
6 12 14 28 20 35 12 185 164 219 222 14 25 33 53 41 63 43 49 58 156 30 214
-7 15 -32 38 -55 51 -23 13 -45 32 -48 43 -4 12 -27 29 -53 40 -52 23 -90 18
-137 -15 -16 -12 -39 -23 -50 -24 -25 -4 -75 -38 -146 -99 -30 -25 -70 -56
-89 -68 -19 -12 -44 -32 -54 -44 -11 -11 -25 -21 -31 -21 -7 0 -43 -20 -79
-45 -37 -25 -71 -45 -76 -45 -4 0 -28 -20 -53 -44 -25 -24 -60 -48 -78 -55
-33 -11 -134 -84 -147 -106 -4 -6 -18 -19 -32 -28 l-25 -16 1 117 c1 64 5 178
8 252 10 228 11 629 2 740 -5 58 -10 130 -11 160 -8 143 -14 172 -42 212 -15
22 -38 45 -50 51 -13 6 -23 13 -23 17 0 4 -11 12 -25 18 -30 14 -30 14 -37 6z"/>
<path d="M4524 8485 c-10 -8 -28 -15 -38 -15 -28 0 -101 -81 -131 -143 -14
-30 -25 -59 -25 -64 0 -6 -7 -16 -14 -23 -8 -6 -20 -37 -27 -68 -6 -31 -16
-66 -22 -77 -5 -10 -14 -46 -18 -80 -4 -33 -12 -80 -18 -105 -16 -64 -40 -221
-39 -250 1 -14 -4 -56 -11 -95 -13 -76 -23 -275 -26 -560 -2 -146 1 -190 15
-232 14 -44 14 -55 3 -75 -8 -14 -11 -41 -8 -68 2 -25 7 -81 10 -125 20 -275
25 -325 35 -372 6 -29 16 -55 21 -59 5 -3 9 -20 9 -39 0 -36 6 -55 51 -151 16
-34 29 -68 29 -77 0 -8 10 -28 23 -44 13 -15 33 -44 45 -64 26 -43 106 -119
125 -119 8 0 32 -18 55 -40 22 -22 47 -40 55 -40 8 0 20 -7 27 -15 12 -14 159
-64 250 -84 25 -5 104 -10 175 -11 243 -2 356 13 433 59 29 17 63 31 76 31 13
0 35 9 49 20 14 11 28 20 32 20 14 0 129 81 142 100 7 10 28 23 47 30 22 7 43
26 64 59 18 27 32 54 32 60 0 7 8 23 17 37 13 21 14 32 6 54 -6 16 -7 34 -2
41 13 21 11 63 -5 93 -24 47 -65 86 -89 86 -13 0 -27 3 -31 7 -4 4 -33 13 -64
19 -60 12 -102 5 -127 -19 -8 -9 -23 -13 -33 -10 -11 2 -73 -21 -144 -55 -116
-56 -133 -61 -214 -67 -66 -4 -117 -1 -199 13 -134 24 -180 44 -219 99 -27 40
-37 72 -66 233 -11 58 -33 299 -43 460 l-2 35 93 -2 c51 -1 101 -4 110 -7 9
-3 46 -8 82 -11 36 -3 88 -10 116 -16 77 -17 160 -4 182 28 9 14 27 36 40 48
12 12 34 39 48 60 23 35 25 42 15 82 -8 30 -8 49 -1 63 18 33 12 78 -12 94
-12 9 -31 16 -41 16 -11 0 -23 13 -32 34 -18 43 -45 59 -125 75 -87 18 -107
19 -312 23 l-178 3 -1 40 c-4 160 9 487 26 640 19 173 23 316 9 346 -6 13 -20
46 -30 74 -35 90 -142 144 -200 100z"/>
<path d="M2930 7913 c-57 -6 -167 -26 -195 -35 -51 -18 -174 -78 -180 -88 -3
-6 -17 -10 -31 -10 -24 0 -156 -66 -207 -104 -53 -41 -144 -131 -165 -167 -12
-20 -38 -53 -57 -73 -19 -21 -35 -47 -35 -59 0 -12 -11 -38 -23 -57 -38 -56
-61 -138 -68 -240 -4 -46 6 -138 16 -160 7 -14 15 -44 19 -68 10 -66 51 -136
99 -166 17 -12 27 -27 27 -42 0 -17 23 -42 93 -97 51 -41 103 -77 114 -81 11
-4 33 -18 47 -31 15 -14 34 -25 42 -25 9 0 28 -6 42 -13 72 -37 122 -59 177
-77 92 -31 167 -51 173 -45 3 3 11 0 19 -6 12 -11 172 -44 254 -54 47 -6 142
-41 169 -63 11 -10 28 -47 39 -85 10 -38 24 -74 29 -79 8 -8 5 -22 -9 -49 -21
-42 -117 -113 -165 -122 -16 -3 -56 -13 -89 -22 -33 -9 -81 -20 -107 -25 -26
-5 -56 -13 -67 -19 -13 -7 -28 -8 -44 -2 -14 6 -58 6 -101 2 -42 -4 -82 -4
-88 0 -7 5 -44 13 -83 19 -38 6 -78 15 -87 20 -10 6 -48 20 -85 32 -38 12 -77
28 -88 35 -11 7 -26 13 -35 13 -8 0 -25 16 -38 35 -21 33 -88 90 -122 103 -8
3 -22 14 -30 23 -10 11 -38 19 -81 23 -59 6 -69 4 -103 -19 -20 -14 -46 -25
-56 -25 -11 0 -27 -8 -35 -17 -75 -86 -93 -139 -77 -223 19 -102 35 -133 79
-154 35 -17 43 -27 57 -72 23 -74 97 -134 278 -225 10 -5 28 -9 42 -9 13 0 29
-6 35 -14 13 -15 116 -44 182 -50 25 -2 59 -10 75 -19 20 -10 62 -16 134 -17
58 -1 119 -1 135 -2 51 -1 67 1 150 12 44 5 89 11 100 11 40 2 151 26 235 51
33 10 131 53 195 85 17 9 41 26 55 38 14 11 36 26 50 32 74 31 190 172 212
258 7 28 22 62 31 77 15 22 19 48 19 145 1 202 -15 288 -67 378 -14 23 -25 49
-25 59 0 9 -18 36 -40 60 -22 24 -40 48 -40 53 0 19 -109 111 -172 147 -82 46
-160 70 -268 86 -47 6 -96 14 -110 18 -14 3 -29 4 -33 4 -4 -1 -17 2 -27 8
-11 6 -41 15 -67 20 -169 34 -232 53 -316 96 -112 57 -138 77 -168 129 -42 73
-18 189 53 254 58 53 161 131 173 131 7 0 30 12 51 27 21 15 55 28 74 29 19 2
64 6 100 9 78 8 106 -2 204 -74 38 -28 72 -51 77 -51 5 0 22 -12 38 -27 46
-44 74 -63 91 -63 9 0 20 -4 26 -9 5 -6 36 -11 69 -12 87 -2 175 39 175 83 0
18 21 61 54 110 21 31 15 73 -14 110 -10 13 -25 40 -33 61 -15 35 -151 177
-170 177 -5 0 -27 15 -50 34 -23 19 -67 44 -97 56 -30 12 -62 27 -70 34 -39
33 -206 67 -290 59z"/>
<path d="M3440 4928 c-30 -4 -80 -10 -110 -12 -30 -3 -91 -9 -135 -15 -44 -6
-120 -13 -170 -17 -49 -4 -106 -8 -125 -10 -19 -2 -85 -5 -146 -7 -62 -3 -121
-10 -135 -17 -13 -7 -48 -14 -79 -15 -70 -3 -131 -30 -197 -90 -69 -62 -83
-118 -53 -213 20 -62 41 -88 78 -97 15 -3 36 -14 47 -24 43 -37 164 -43 523
-26 l172 8 1 -64 c0 -35 2 -190 3 -344 8 -695 2 -1340 -15 -1460 -13 -101 -29
-156 -68 -235 -17 -34 -31 -73 -31 -86 0 -13 -6 -24 -12 -24 -7 0 -29 -10 -48
-22 -19 -12 -46 -23 -60 -24 -14 0 -59 -9 -100 -18 -85 -19 -221 -23 -264 -6
-51 19 -84 49 -127 115 -23 36 -46 65 -51 65 -5 0 -26 19 -47 41 -32 35 -43
41 -66 37 -15 -3 -49 3 -78 14 -93 37 -106 35 -170 -17 -61 -49 -77 -71 -77
-105 0 -12 -9 -33 -20 -47 -16 -20 -20 -39 -18 -92 1 -71 10 -98 40 -119 12
-9 18 -26 18 -50 0 -36 33 -102 75 -151 79 -92 176 -179 230 -205 114 -56 180
-78 227 -75 18 2 42 -2 53 -8 24 -12 215 -7 300 8 33 6 76 12 95 14 121 10
237 42 330 93 106 57 169 107 186 149 8 18 32 46 54 64 23 19 46 49 56 75 9
23 22 45 30 48 17 7 54 79 54 107 0 12 9 36 19 53 29 47 63 173 66 242 2 34 7
70 13 80 24 46 17 1061 -9 1309 -6 55 -11 109 -11 120 -2 52 -28 234 -37 259
-6 15 -11 42 -11 61 0 30 -32 184 -47 221 -5 14 2 15 53 10 83 -9 147 -7 158
4 6 6 28 10 51 11 69 1 108 20 122 59 6 19 9 50 6 67 -4 25 1 39 21 64 23 27
25 36 20 87 -5 45 -12 62 -32 80 -15 12 -44 38 -64 58 -23 24 -52 40 -80 46
-125 27 -312 39 -408 26z"/>
<path d="M7235 3575 c-5 -2 -46 -6 -90 -9 -109 -7 -217 -24 -229 -36 -5 -5
-18 -10 -28 -10 -10 0 -26 -4 -36 -9 -86 -43 -92 -44 -152 -9 -33 19 -42 20
-86 13 -100 -15 -160 -115 -208 -350 -9 -44 -23 -114 -32 -155 -23 -112 -62
-394 -63 -445 0 -11 -4 -42 -10 -69 -6 -27 -14 -101 -17 -165 -3 -63 -8 -119
-10 -123 -7 -11 -24 -214 -29 -353 -17 -403 -17 -439 -1 -509 15 -62 47 -125
69 -134 4 -2 21 -15 36 -28 33 -27 59 -30 104 -11 66 28 96 34 146 29 69 -6
92 11 135 103 20 41 36 78 36 83 0 5 7 23 15 40 18 35 37 227 32 322 -2 36 0
72 4 81 4 9 9 58 10 110 1 52 4 99 6 105 3 8 20 6 56 -6 70 -25 212 -39 277
-29 29 5 57 6 61 3 29 -18 293 56 310 87 6 13 21 19 44 19 36 0 165 63 223
109 62 50 192 184 192 198 0 8 9 26 20 40 11 14 20 33 20 41 0 9 6 23 14 31
61 71 68 416 11 531 -7 14 -21 44 -30 67 -10 23 -26 50 -36 59 -11 10 -19 23
-19 30 0 23 -120 138 -168 161 -26 13 -52 23 -57 23 -6 0 -16 9 -23 20 -13 22
-67 51 -127 69 -22 7 -49 16 -60 21 -51 21 -116 33 -180 35 -38 1 -80 7 -92
13 -12 7 -23 12 -25 11 -2 0 -7 -2 -13 -4z m-15 -459 c30 -10 88 -29 127 -42
136 -46 207 -110 218 -198 10 -78 -10 -133 -63 -171 -74 -54 -112 -74 -170
-91 -106 -29 -167 -46 -192 -51 -41 -8 -121 -33 -187 -59 -100 -39 -103 -37
-103 49 0 102 0 107 6 152 12 86 21 244 19 332 -2 109 -16 100 170 98 87 0
135 -6 175 -19z"/>
<path d="M4338 3393 c-21 -21 -38 -44 -38 -50 0 -6 -7 -16 -15 -23 -8 -7 -15
-24 -15 -38 0 -14 -6 -33 -14 -41 -28 -31 -68 -173 -70 -241 -1 -37 -6 -73
-12 -81 -19 -24 -36 -112 -26 -139 6 -17 5 -35 -5 -58 -8 -20 -16 -85 -18
-165 -3 -73 -9 -159 -15 -192 -23 -140 -53 -364 -56 -420 -4 -77 12 -148 39
-175 62 -60 96 -80 141 -85 25 -2 55 -9 65 -15 35 -18 65 -10 108 29 23 22 51
42 61 45 36 12 53 44 69 127 24 132 82 360 103 404 11 22 29 67 41 100 12 33
37 103 56 155 19 52 38 111 42 130 4 19 15 49 24 67 9 18 17 37 17 43 0 6 15
34 33 63 18 29 37 61 42 72 15 37 27 -74 25 -243 0 -13 -5 -32 -10 -43 -6 -11
-8 -28 -5 -38 3 -10 -1 -52 -8 -92 -8 -41 -15 -87 -16 -103 0 -15 -8 -54 -16
-85 -9 -31 -28 -99 -42 -151 -22 -80 -31 -139 -34 -230 0 -8 3 -35 6 -60 8
-50 65 -120 98 -120 10 0 30 -9 43 -19 21 -17 36 -19 102 -14 49 4 84 11 95
22 10 8 32 20 49 26 33 11 86 90 87 130 1 11 9 34 19 50 18 30 84 216 117 330
15 54 25 85 66 205 21 63 41 114 65 168 13 29 24 59 24 68 0 8 10 34 22 57
l21 42 13 -30 c8 -21 9 -36 2 -48 -5 -10 -12 -60 -14 -110 -2 -51 -6 -132 -9
-182 -2 -49 -11 -139 -18 -200 -8 -60 -13 -159 -11 -219 3 -92 7 -115 24 -138
11 -15 20 -34 20 -43 0 -25 61 -75 91 -75 15 0 32 -7 39 -15 10 -12 28 -14 74
-11 80 5 140 36 166 84 11 20 24 44 29 52 23 39 41 99 41 135 -1 22 4 74 9
115 25 177 36 442 27 670 -5 128 -13 180 -31 200 -8 9 -15 33 -15 53 0 20 -4
39 -10 42 -5 3 -10 14 -10 23 0 21 -74 113 -101 126 -10 5 -21 16 -24 25 -9
29 -102 73 -177 82 -87 11 -150 -3 -179 -40 -15 -19 -28 -25 -50 -23 -25 3
-41 -7 -99 -65 -39 -37 -70 -75 -70 -83 0 -8 -10 4 -22 28 -13 24 -35 51 -50
60 -16 9 -28 22 -28 28 0 13 -56 64 -70 64 -5 0 -20 11 -33 24 -14 14 -42 28
-63 32 -22 4 -48 13 -59 20 -26 19 -147 18 -209 -1 -62 -19 -113 -51 -121 -75
-4 -11 -10 -20 -15 -20 -5 0 -22 -14 -39 -32 l-29 -31 -12 42 c-6 23 -19 50
-30 61 -10 10 -20 26 -22 36 -5 26 -48 52 -98 59 -43 6 -47 4 -82 -32z"/>
</g>
</svg>
